<?xml version="1.0" encoding="UTF-8"?>
<svg xmlns="http://www.w3.org/2000/svg" xmlns:xlink="http://www.w3.org/1999/xlink" width="50px" height="50px" viewBox="0 0 50 50" version="1.1">
<g id="surface1">
<path style=" stroke:none;fill-rule:nonzero;fill:rgb(0%,0%,0%);fill-opacity:1;" d="M 24.761719 5.207031 C 24.761719 2.332031 27.09375 0 29.972656 0 C 32.847656 0 35.179688 2.332031 35.179688 5.207031 C 35.179688 8.085938 32.847656 10.417969 29.972656 10.417969 C 27.09375 10.417969 24.761719 8.085938 24.761719 5.207031 Z M 45.832031 41.667969 C 43.53125 41.667969 41.667969 43.53125 41.667969 45.832031 C 41.667969 48.136719 43.53125 50 45.832031 50 C 48.136719 50 50 48.136719 50 45.832031 C 50 43.53125 48.136719 41.667969 45.832031 41.667969 Z M 37.351562 47.144531 C 37.777344 48.210938 37.261719 49.425781 36.191406 49.851562 C 35.148438 50.273438 33.910156 49.769531 33.484375 48.691406 L 30.167969 40.398438 C 29.753906 39.355469 29.058594 38.445312 28.167969 37.761719 L 19.378906 31.035156 C 16.964844 29.515625 15.9375 26.296875 17.089844 23.484375 L 21.464844 14.683594 L 15.519531 11.816406 C 14.019531 11.089844 12.699219 10.003906 11.699219 8.667969 L 7.707031 3.332031 C 7.015625 2.410156 7.207031 1.105469 8.128906 0.417969 C 9.050781 -0.273438 10.355469 -0.0820312 11.046875 0.835938 L 15.035156 6.175781 C 15.636719 6.976562 16.425781 7.628906 17.328125 8.066406 L 46.742188 22.257812 C 47.777344 22.757812 48.210938 24.003906 47.710938 25.039062 C 47.210938 26.085938 45.945312 26.503906 44.929688 26.007812 L 32.496094 20.007812 L 26.945312 31.582031 L 30.699219 34.453125 C 32.1875 35.589844 33.34375 37.109375 34.042969 38.855469 L 37.355469 47.144531 Z M 21.757812 27.621094 L 23.542969 28.984375 L 28.742188 18.199219 L 25.214844 16.496094 L 20.878906 25.203125 C 20.558594 26.003906 20.902344 27.074219 21.757812 27.617188 Z M 14.207031 31.613281 L 10.058594 34.820312 L 3.328125 29.632812 C 2.410156 28.953125 1.109375 29.140625 0.421875 30.054688 C -0.273438 30.980469 -0.0859375 32.292969 0.839844 32.984375 L 7.539062 38.160156 C 9.035156 39.273438 11.085938 39.257812 12.566406 38.121094 L 17.167969 34.589844 C 16.035156 33.839844 14.929688 32.714844 14.207031 31.617188 Z M 14.207031 31.613281 "/>
</g>
</svg>
